<svg width="15" height="14" viewBox="0 0 46 42" fill="none" xmlns="http://www.w3.org/2000/svg"><path d="M45.973 9.973l-2.598 13.506a4.799 4.799 0 01-1.753 2.851 5.282 5.282 0 01-3.273 1.126h-24.7l.937 4.845h22.89c1.011 0 2 .284 2.84.816a4.91 4.91 0 011.882 2.175c.387.885.488 1.86.29 2.8a4.773 4.773 0 01-1.398 2.48 5.203 5.203 0 01-2.617 1.326 5.372 5.372 0 01-2.952-.276 5.063 5.063 0 01-2.294-1.784 4.669 4.669 0 01-.86-2.692c0-.55.1-1.097.297-1.615h-12.52c.197.518.298 1.064.298 1.615a4.642 4.642 0 01-.577 2.245 4.936 4.936 0 01-1.61 1.737 5.28 5.28 0 01-2.273.833c-.818.1-1.65.01-2.423-.262a5.132 5.132 0 01-2.019-1.295 4.773 4.773 0 01-1.156-2.035 4.601 4.601 0 01-.03-2.31 4.757 4.757 0 011.102-2.063L5.558 3.23H1.703a1.75 1.75 0 01-1.204-.473A1.574 1.574 0 010 1.615C0 1.187.18.775.499.473.819.17 1.252 0 1.703 0h3.855a3.522 3.522 0 012.175.75A3.2 3.2 0 018.9 2.645l1.043 5.43H44.29c.25 0 .495.053.72.155.224.1.422.248.58.43.164.177.284.387.35.615.067.227.078.466.033.698z" fill="#fff"/></svg>