<svg width="48" height="51" fill="none" xmlns="http://www.w3.org/2000/svg"><rect y=".984" width="47.5" height="50" rx="23.75" fill="#A03611"/><g clip-path="url(#clip0_219_2121)"><path d="M29.09 24.699c2.114 0 3.806-1.723 3.806-3.858 0-2.134-1.692-3.857-3.805-3.857-2.113 0-3.818 1.723-3.818 3.857 0 2.135 1.705 3.858 3.818 3.858zm-10.18 0c2.112 0 3.805-1.723 3.805-3.858 0-2.134-1.693-3.857-3.806-3.857s-3.818 1.723-3.818 3.857c0 2.135 1.705 3.858 3.818 3.858zm0 2.571c-2.966 0-8.91 1.504-8.91 4.5v3.214h17.818V31.77c0-2.996-5.944-4.5-8.909-4.5zm10.18 0c-.368 0-.788.026-1.234.064 1.477 1.08 2.508 2.533 2.508 4.436v3.214H38V31.77c0-2.996-5.944-4.5-8.91-4.5z" fill="#fff"/></g><defs><clipPath id="clip0_219_2121"><path fill="#fff" transform="translate(9 10.984)" d="M0 0h30v30H0z"/></clipPath></defs></svg>