<svg width="48" height="51" fill="none" xmlns="http://www.w3.org/2000/svg"><rect y=".984" width="47.5" height="50" rx="23.75" fill="#A03611"/><g clip-path="url(#clip0_219_2092)"><path d="M35.815 11.984H28.55c-.516 0-1.011.204-1.376.566a1.925 1.925 0 000 2.732c.365.363.86.566 1.376.566h2.536l-6.63 6.518a1.931 1.931 0 00-.576 1.363 1.922 1.922 0 00.564 1.369 1.946 1.946 0 001.373.572 1.96 1.96 0 001.379-.559l6.673-6.562v2.511c0 .512.205 1.004.57 1.366a1.954 1.954 0 002.752 0c.365-.362.57-.854.57-1.366v-7.144c0-.512-.205-1.004-.57-1.366a1.953 1.953 0 00-1.376-.566zM20.567 26.635l-6.675 6.562v-2.51c0-.513-.205-1.005-.57-1.367a1.953 1.953 0 00-2.752 0c-.365.362-.57.854-.57 1.366v7.144c0 .512.205 1.004.57 1.366.365.362.86.566 1.376.566h7.265c.516 0 1.011-.204 1.376-.566a1.924 1.924 0 000-2.732 1.954 1.954 0 00-1.376-.566h-2.536l6.629-6.518a1.932 1.932 0 00.576-1.363 1.917 1.917 0 00-.563-1.369 1.946 1.946 0 00-1.374-.572 1.962 1.962 0 00-1.378.559h.002z" fill="#fff"/></g><defs><clipPath id="clip0_219_2092"><path fill="#fff" transform="translate(10 10.984)" d="M0 0h30v30H0z"/></clipPath></defs></svg>