<svg width="23" height="25" fill="none" xmlns="http://www.w3.org/2000/svg"><path d="M3.167 10.833v-.735h-.735v.735h.735zm6.667 0v-.735h-.736v.735h.736zm0 6.667h-.736v.735h.736V17.5zM21.5 5.833h.736v-.305l-.216-.215-.52.52zm-5-5l.52-.52-.215-.215H16.5v.735zM3.167 11.568h1.667v-1.47H3.167v1.47zm.735 6.765v-4.167h-1.47v4.167h1.47zm0-4.167v-3.333h-1.47v3.333h1.47zm.932-.735H3.167v1.47h1.667v-1.47zm.931-.931a.931.931 0 01-.931.931v1.47A2.402 2.402 0 007.236 12.5h-1.47zm-.931-.932c.514 0 .931.417.931.932h1.47a2.402 2.402 0 00-2.401-2.402v1.47zm4.264-.735V17.5h1.471v-6.667h-1.47zm.736 7.402H11.5v-1.47H9.834v1.47zm4.068-2.402V12.5h-1.47v3.333h1.47zM11.5 10.098H9.834v1.47H11.5v-1.47zm2.402 2.402a2.402 2.402 0 00-2.402-2.402v1.47c.515 0 .932.417.932.932h1.47zM11.5 18.235a2.402 2.402 0 002.402-2.402h-1.47a.931.931 0 01-.932.931v1.47zM15.765 10v8.333h1.47V10h-1.47zm.735 1.568h4.167v-1.47H16.5v1.47zm0 3.334H19V13.43h-2.5v1.47zM2.236 8.332V2.5H.766v5.833h1.47zm18.53-2.5v2.5h1.47v-2.5h-1.47zm-17.6-4.264H16.5V.098H3.167v1.47zm12.813-.215l5 5 1.04-1.04-5-5-1.04 1.04zM2.236 2.5c0-.515.417-.932.931-.932V.098A2.402 2.402 0 00.765 2.5h1.47zM.766 20v2.5h1.47V20H.766zm2.4 4.9h16.667v-1.47H3.167v1.47zm19.07-2.4V20h-1.47v2.5h1.47zm-2.402 2.4a2.402 2.402 0 002.402-2.401h-1.47a.931.931 0 01-.932.93V24.9zM.765 22.5a2.402 2.402 0 002.402 2.4v-1.47a.931.931 0 01-.931-.931H.766z" fill="#A03611"/></svg>