<svg width="36" height="48" viewBox="0 0 36 48" fill="none" xmlns="http://www.w3.org/2000/svg">
<path d="M20.1 18.95C14.358 18.95 9.474 21.062 6.834 25.022C6.768 24.428 6.768 23.9 6.768 23.372C6.768 11.822 12.774 5.948 22.146 5.948C25.446 5.948 28.614 6.542 30.99 8.126L33.498 2.978C30.528 1.13 26.37 0.272 22.014 0.272C9.078 0.272 0.168 8.72 0.168 24.494C0.168 39.212 7.164 47.528 19.572 47.528C28.746 47.528 35.94 41.852 35.94 32.942C35.94 24.428 29.274 18.95 20.1 18.95ZM19.308 42.182C12.18 42.182 8.352 38.024 8.352 33.272C8.352 28.19 12.708 24.296 18.978 24.296C25.446 24.296 29.538 27.794 29.538 33.206C29.538 38.684 25.314 42.182 19.308 42.182Z" fill="#252916" fill-opacity="0.6"/>
</svg>
