<svg width="255" height="32" viewBox="0 0 255 32" fill="none" xmlns="http://www.w3.org/2000/svg">
<path d="M20.7624 26.6394C22.3639 26.6669 23.9356 26.2041 25.2667 25.3131L27.9643 23.4063C29.3056 22.4579 30.0738 21.1366 30.0738 19.7828V13.8021L21.4981 19.8679C20.5166 20.5151 19.363 20.8517 18.1874 20.8338H10.6452C9.1788 20.8338 7.98516 20.0231 7.98516 19.0296V9.08508C7.98516 8.43446 8.3505 7.81637 9.01614 7.34592L9.8044 6.79038C10.8034 6.13086 11.9782 5.7881 13.1751 5.80694H18.793C20.5099 5.83749 22.1951 5.34241 23.6226 4.38808L29.8286 0.00137489H10.8404C9.0727 -0.0301104 7.33767 0.479834 5.86813 1.46278L2.77766 3.65488C1.02599 4.90608 0 6.64024 0 8.40944V22C0 24.5524 2.89027 26.6294 6.44118 26.6294L20.7624 26.6394Z" fill="#343A1D"/>
<path d="M28.132 5.14374C26.5304 5.11623 24.9588 5.579 23.6277 6.47001L20.9201 8.37684C19.5788 9.32524 18.8105 10.6465 18.8105 12.0003V17.9785L27.3888 11.9127C28.3694 11.2656 29.5222 10.929 30.6969 10.9468H38.2467C39.7156 10.9468 40.9067 11.7576 40.9067 12.751V22.6956C40.9067 23.3462 40.5414 23.9643 39.8757 24.4347L39.0875 24.9853C38.0912 25.6506 36.9172 25.9995 35.7193 25.9862H30.1039C28.387 25.956 26.7019 26.451 25.2742 27.4051L19.0683 31.7943H38.0615C39.8292 31.8258 41.5642 31.3158 43.0338 30.3329L46.1367 28.1383C47.8884 26.8871 48.9144 25.1554 48.9144 23.3837V9.77317C48.9144 7.22073 46.0241 5.14374 42.4757 5.14374H28.132Z" fill="#343A1D"/>
<path d="M66.3556 14.2005L66.8674 13.8515C67.4678 13.4763 68.1643 13.2836 68.8721 13.297H72.5364C73.7206 13.3182 74.8842 12.9861 75.8788 12.3431L80.9196 8.92315H67.3483C66.1303 8.90081 64.9332 9.24092 63.9089 9.90029L61.8848 11.2768C60.6324 12.1299 59.915 13.328 59.915 14.5688V23.0994C59.915 24.9335 61.9158 26.3681 64.4673 26.3681H73.8198C74.9318 26.3871 76.0246 26.0769 76.9606 25.4763L78.721 24.2781C79.1717 24.009 79.549 23.6329 79.8195 23.1832C80.0901 22.7334 80.2455 22.2238 80.272 21.6996V17.2715L74.1107 21.4514C73.5231 21.8187 72.8414 22.0073 72.1486 21.9943H67.2242C66.4487 21.9943 65.8399 21.6065 65.8399 21.2188V14.9876C65.8544 14.8241 65.909 14.6666 65.999 14.5293C66.089 14.392 66.2115 14.279 66.3556 14.2005Z" fill="#343A1D"/>
<path d="M139.235 14.2L139.746 13.8472C140.347 13.472 141.043 13.2793 141.751 13.2927H145.415C146.599 13.3132 147.762 12.9826 148.758 12.3427L153.799 8.91884H140.227C139.009 8.89837 137.813 9.23832 136.788 9.89597L134.764 11.2725C133.511 12.1256 132.794 13.3237 132.794 14.5684V23.099C132.794 24.933 134.795 26.3677 137.346 26.3677H146.695C147.807 26.3867 148.9 26.0764 149.836 25.4759L151.596 24.2777C152.047 24.0086 152.424 23.6325 152.695 23.1827C152.965 22.7329 153.121 22.2234 153.147 21.6992V17.271L147.001 21.4471C146.415 21.8174 145.733 22.0075 145.039 21.9939H140.115C139.339 21.9939 138.73 21.6061 138.73 21.2184V14.9872C138.745 14.8252 138.799 14.6692 138.887 14.5322C138.974 14.3952 139.094 14.2813 139.235 14.2Z" fill="#343A1D"/>
<path d="M102.635 11.0167C100.905 9.6208 98.292 8.92285 94.7944 8.92285C91.2969 8.92285 88.677 9.6208 86.9347 11.0167C85.1872 12.4359 84.3135 14.6409 84.3135 17.6318C84.3135 20.6226 85.1846 22.8367 86.9269 24.274C88.6253 25.6699 91.2452 26.3678 94.7867 26.3678C98.3281 26.3678 100.948 25.6699 102.646 24.274C104.391 22.8238 105.262 20.6097 105.26 17.6318C105.257 14.6538 104.382 12.4488 102.635 11.0167ZM99.5056 21.1681C98.6629 21.7058 97.0925 21.9746 94.7944 21.9746C92.4963 21.9746 90.9337 21.7058 90.1065 21.1681C89.1914 20.5942 88.7339 19.4154 88.7339 17.6318C88.7339 15.8481 89.1914 14.6706 90.1065 14.0993C90.882 13.5823 92.4446 13.3238 94.7944 13.3238C97.1442 13.3238 98.7146 13.5823 99.5056 14.0993C100.405 14.7042 100.855 15.8817 100.855 17.6318C100.855 19.3818 100.405 20.5606 99.5056 21.1681Z" fill="#343A1D"/>
<path d="M114.759 8.91895H108.776V22.878C108.776 23.7982 109.14 24.6812 109.788 25.3348C110.435 25.9884 111.315 26.3596 112.235 26.3678H124.069C124.632 26.3671 125.189 26.2452 125.701 26.0103C126.213 25.7755 126.668 25.4332 127.036 25.0068L129.75 21.8815H114.759V8.91895Z" fill="#343A1D"/>
<path d="M173.251 15.1036H162.976V8.92285H157.605V26.3678H162.976V19.6403H173.251V26.3678H178.571V8.92285H173.251V15.1036Z" fill="#343A1D"/>
<path d="M198.033 18.5934C198.033 19.8264 197.675 20.6911 196.959 21.1875C196.243 21.6838 194.937 21.9423 193.042 21.963C190.54 21.963 188.892 21.7239 188.099 21.2456C187.305 20.7674 186.917 19.8859 186.935 18.6012V8.92285H182.026V18.5934C182.026 21.2301 182.894 23.1689 184.628 24.4097C186.412 25.7022 189.214 26.3484 193.035 26.3484C199.673 26.3484 202.992 23.757 202.992 18.574V8.92285H198.033V18.5934Z" fill="#343A1D"/>
<path d="M240.859 21.9549L238.144 26.3676H255L245.946 10.8575C245.214 9.56496 244.262 8.9187 243.088 8.9187C241.915 8.9187 240.948 9.56496 240.188 10.8575L230.882 26.3676H236.19L242.987 14.9754L245.585 19.5199L245.973 20.1596L246.361 20.8266C246.694 21.4082 246.923 21.7998 247.055 21.9898C246.667 21.9549 246.279 21.9394 245.841 21.9394L240.859 21.9549Z" fill="#343A1D"/>
<path d="M212.892 14.2002L213.408 13.8512C214.005 13.476 214.699 13.2833 215.405 13.2967H219.061C220.242 13.3173 221.403 12.9867 222.396 12.3468L227.413 8.9229H213.888C212.673 8.90069 211.478 9.24085 210.457 9.90003L208.437 11.2766C207.188 12.1296 206.471 13.3278 206.471 14.5686V23.0991C206.471 24.9332 208.468 26.3679 211.015 26.3679H220.344C221.453 26.3869 222.542 26.0765 223.474 25.476L225.23 24.2779C225.678 24.007 226.052 23.63 226.319 23.1803C226.586 22.7305 226.738 22.2219 226.762 21.6993V17.2712L216.804 17.3449C216.742 17.3449 216.681 17.3698 216.637 17.4142C216.593 17.4585 216.568 17.5187 216.568 17.5814V18.3879C216.57 18.7856 216.65 19.179 216.804 19.5457C216.958 19.9123 217.183 20.245 217.466 20.5248C217.748 20.8045 218.083 21.0259 218.452 21.1762C218.82 21.3265 219.214 21.4028 219.612 21.4008H220.705L220.631 21.4512C220.045 21.8183 219.365 22.007 218.673 21.994H213.76C212.985 21.994 212.38 21.6063 212.38 21.2185V14.9873C212.395 14.8244 212.449 14.6675 212.538 14.5303C212.628 14.3931 212.749 14.2798 212.892 14.2002Z" fill="#343A1D"/>
</svg>
