<svg width="210" height="32" viewBox="0 0 210 32" fill="none" xmlns="http://www.w3.org/2000/svg">
<path d="M47.6087 13.358C48.4118 13.3718 49.1999 13.1398 49.8673 12.693L51.22 11.7368C51.8926 11.2613 52.2778 10.5987 52.2778 9.91988V6.92091L47.9776 9.96254C47.4854 10.2871 46.907 10.4558 46.3175 10.4469H42.5356C41.8002 10.4469 41.2017 10.0403 41.2017 9.54218V4.55561C41.2017 4.22936 41.3849 3.91943 41.7187 3.68353L42.1139 3.40496C42.6149 3.07425 43.204 2.90238 43.8042 2.91182H46.6212C47.4821 2.92714 48.3271 2.67889 49.0429 2.20035L52.1548 0.000689422H42.6334C41.747 -0.0150985 40.877 0.240607 40.1401 0.733492L38.5905 1.8327C37.7121 2.4601 37.1976 3.32967 37.1976 4.21681V11.0316C37.1976 12.3115 38.6469 13.353 40.4275 13.353L47.6087 13.358Z" fill="#343A1D"/>
<path d="M51.3041 2.57932C50.5011 2.56552 49.713 2.79758 49.0455 3.24436L47.6878 4.20052C47.0152 4.67609 46.63 5.33862 46.63 6.01747V9.01518L50.9315 5.97355C51.4232 5.64907 52.0012 5.48028 52.5903 5.4892H56.376C57.1126 5.4892 57.7099 5.89575 57.7099 6.39391V11.3805C57.7099 11.7067 57.5267 12.0167 57.1929 12.2526L56.7976 12.5286C56.2981 12.8623 55.7094 13.0372 55.1087 13.0305H52.2929C51.432 13.0154 50.587 13.2636 49.8712 13.742L46.7592 15.9429H56.2832C57.1696 15.9587 58.0396 15.703 58.7765 15.2101L60.3324 14.1097C61.2108 13.4823 61.7252 12.6139 61.7252 11.7255V4.9007C61.7252 3.6208 60.276 2.57932 58.4966 2.57932H51.3041Z" fill="#343A1D"/>
<path d="M3.22967 25.8985L3.48633 25.7235C3.78737 25.5353 4.13661 25.4387 4.49155 25.4454H6.32895C6.92274 25.4561 7.50624 25.2896 8.00498 24.9671L10.5326 23.2522H3.72742C3.11669 23.241 2.51641 23.4116 2.00279 23.7422L0.987847 24.4324C0.359825 24.8602 0.00012207 25.461 0.00012207 26.0832V30.3607C0.00012207 31.2804 1.0034 31.9998 2.28278 31.9998H6.97253C7.53012 32.0093 8.07807 31.8538 8.54745 31.5526L9.43018 30.9518C9.65615 30.8169 9.84535 30.6283 9.98101 30.4027C10.1167 30.1772 10.1946 29.9217 10.2079 29.6588V27.4384L7.11836 29.5344C6.82372 29.7186 6.48191 29.8131 6.13452 29.8066H3.66521C3.27634 29.8066 2.97108 29.6122 2.97108 29.4177V26.2932C2.97833 26.2112 3.00573 26.1322 3.05085 26.0634C3.09596 25.9945 3.15739 25.9379 3.22967 25.8985Z" fill="#343A1D"/>
<path d="M39.7736 25.8972L40.0303 25.7202C40.3313 25.5321 40.6806 25.4355 41.0355 25.4422H42.8729C43.4664 25.4525 44.0496 25.2867 44.5489 24.9658L47.0766 23.249H40.2714C39.6608 23.2387 39.0607 23.4092 38.5467 23.7389L37.5318 24.4292C36.9038 24.8569 36.5441 25.4577 36.5441 26.0819V30.3594C36.5441 31.2791 37.5473 31.9985 38.8267 31.9985H43.5145C44.0721 32.008 44.6201 31.8524 45.0894 31.5513L45.9722 30.9505C46.1981 30.8156 46.3873 30.627 46.523 30.4014C46.6587 30.1759 46.7366 29.9204 46.7499 29.6575V27.4371L43.6681 29.5311C43.3741 29.7168 43.032 29.8121 42.6843 29.8053H40.215C39.8261 29.8053 39.5209 29.6109 39.5209 29.4164V26.2919C39.5283 26.2106 39.5552 26.1324 39.5991 26.0637C39.6431 25.995 39.703 25.9379 39.7736 25.8972Z" fill="#343A1D"/>
<path d="M21.4214 24.3009C20.5542 23.601 19.2437 23.251 17.4899 23.251C15.7361 23.251 14.4224 23.601 13.5488 24.3009C12.6725 25.0125 12.2344 26.1182 12.2344 27.618C12.2344 29.1177 12.6712 30.2279 13.5449 30.9486C14.3965 31.6486 15.7102 31.9986 17.486 31.9986C19.2619 31.9986 20.5756 31.6486 21.4272 30.9486C22.3022 30.2214 22.739 29.1112 22.7377 27.618C22.7364 26.1247 22.2976 25.019 21.4214 24.3009ZM19.8523 29.3912C19.4297 29.6608 18.6423 29.7956 17.4899 29.7956C16.3376 29.7956 15.554 29.6608 15.1392 29.3912C14.6804 29.1034 14.4509 28.5124 14.4509 27.618C14.4509 26.7236 14.6804 26.1331 15.1392 25.8467C15.5281 25.5874 16.3117 25.4578 17.4899 25.4578C18.6682 25.4578 19.4557 25.5874 19.8523 25.8467C20.3034 26.15 20.5289 26.7404 20.5289 27.618C20.5289 28.4955 20.3034 29.0866 19.8523 29.3912Z" fill="#343A1D"/>
<path d="M27.5011 23.249H24.501V30.2487C24.501 30.7101 24.6832 31.1528 25.008 31.4806C25.3328 31.8083 25.7739 31.9945 26.2353 31.9986H32.1695C32.4518 31.9982 32.7308 31.9371 32.9875 31.8193C33.2441 31.7015 33.4724 31.5299 33.6569 31.3161L35.0179 29.749H27.5011V23.249Z" fill="#343A1D"/>
<path d="M56.8311 26.3503H51.6786V23.251H48.9857V31.9986H51.6786V28.6251H56.8311V31.9986H59.4988V23.251H56.8311V26.3503Z" fill="#343A1D"/>
<path d="M69.2574 28.1002C69.2574 28.7185 69.0779 29.152 68.7189 29.4009C68.3598 29.6498 67.7052 29.7794 66.7551 29.7898C65.5003 29.7898 64.674 29.6699 64.276 29.4301C63.8781 29.1903 63.6837 28.7483 63.6927 28.1041V23.251H61.2312V28.1002C61.2312 29.4223 61.6661 30.3945 62.5359 31.0167C63.4302 31.6648 64.8354 31.9888 66.7512 31.9888C70.0799 31.9888 71.7443 30.6894 71.7443 28.0904V23.251H69.2574V28.1002Z" fill="#343A1D"/>
<path d="M90.7322 29.7859L89.3712 31.9986H97.8232L93.2832 24.2212C92.9164 23.5731 92.4387 23.249 91.8502 23.249C91.2617 23.249 90.7769 23.5731 90.3958 24.2212L85.7294 31.9986H88.3912L91.7997 26.2861L93.1024 28.5649L93.2968 28.8857L93.4912 29.2201C93.6584 29.5117 93.7732 29.7081 93.8393 29.8034C93.6448 29.7859 93.4504 29.7781 93.2307 29.7781L90.7322 29.7859Z" fill="#343A1D"/>
<path d="M76.7084 25.8974L76.9669 25.7224C77.2666 25.5342 77.6146 25.4376 77.9683 25.4443H79.8018C80.3941 25.4547 80.976 25.2889 81.4739 24.968L83.9899 23.2511H77.2081C76.5985 23.24 75.9995 23.4106 75.4873 23.7411L74.4743 24.4313C73.8482 24.8591 73.4885 25.4599 73.4885 26.0821V30.3596C73.4885 31.2793 74.4899 31.9987 75.7673 31.9987H80.4454C81.0011 32.0083 81.5472 31.8526 82.0145 31.5515L82.8953 30.9507C83.1196 30.8149 83.3071 30.6258 83.4411 30.4003C83.575 30.1748 83.6513 29.9198 83.6633 29.6577V27.4373L78.6702 27.4742C78.6387 27.4742 78.6086 27.4867 78.5863 27.509C78.5641 27.5312 78.5516 27.5614 78.5516 27.5928V27.9973C78.5526 28.1967 78.5929 28.3939 78.6702 28.5778C78.7474 28.7616 78.8601 28.9285 79.0019 29.0688C79.1436 29.209 79.3116 29.32 79.4962 29.3954C79.6808 29.4708 79.8785 29.509 80.0779 29.508H80.6262L80.5893 29.5333C80.2953 29.7174 79.9541 29.812 79.6074 29.8055H77.1439C76.755 29.8055 76.4517 29.6111 76.4517 29.4166V26.2921C76.4591 26.2104 76.4863 26.1317 76.5311 26.0629C76.5758 25.9941 76.6367 25.9373 76.7084 25.8974Z" fill="#343A1D"/>
<path d="M156.584 19.6964H155V32H156.584V19.6964Z" fill="#343A1D"/>
<path d="M209.759 19.6436H208.175V23.7624H209.759V19.6436Z" fill="#343A1D"/>
<path d="M204.162 24.7129C203.887 24.7129 203.615 24.658 203.361 24.5512C203.108 24.4444 202.878 24.288 202.687 24.0911C202.495 23.8943 202.344 23.661 202.244 23.405C202.143 23.149 202.095 22.8755 202.102 22.6007V19.6436H200.518V22.6007C200.511 23.0836 200.6 23.563 200.78 24.0112C200.96 24.4594 201.227 24.8673 201.567 25.2112C201.906 25.5552 202.31 25.8283 202.755 26.0147C203.201 26.2011 203.679 26.2971 204.162 26.297H208.175V32H209.812V24.7129H204.162Z" fill="#343A1D"/>
<path d="M198.512 30.4159H192.333V32H198.512V30.4159Z" fill="#343A1D"/>
<path d="M191.647 19.6964H190.063V32H191.647V19.6964Z" fill="#343A1D"/>
<path d="M198.512 19.6964H192.333V21.2806H198.512V19.6964Z" fill="#343A1D"/>
<path d="M197.35 25.0297H192.333V26.6138H197.35V25.0297Z" fill="#343A1D"/>
<path d="M185.099 19.6436V21.4917L180.98 25.6105L176.809 21.4917V19.6436H175.224V32H176.809V23.7096L180.98 27.8812L185.099 23.7096V32H186.683V19.6436H185.099Z" fill="#343A1D"/>
<path d="M165.667 19.6964H164.083V32H165.667V19.6964Z" fill="#343A1D"/>
<path d="M157.218 32L163.396 22.4423V19.6964L157.218 29.2542V32Z" fill="#343A1D"/>
<path d="M196.981 0H193.496V1.58415H196.981V0Z" fill="#343A1D"/>
<path d="M190.486 0H187.001V1.58415H190.486V0Z" fill="#343A1D"/>
<path d="M192.757 0H191.172V12.3036H192.757V0Z" fill="#343A1D"/>
<path d="M184.677 0H183.093V12.3036H184.677V0Z" fill="#343A1D"/>
<path d="M176.229 12.3036L182.407 2.79868V0L176.229 9.55774V12.3036Z" fill="#343A1D"/>
<path d="M175.595 0H174.011V12.3036H175.595V0Z" fill="#343A1D"/>
<path d="M168.889 0V10.561H163.608V0H162.024V10.561H157.43C157.248 10.561 157.073 10.4887 156.944 10.36C156.816 10.2312 156.743 10.0566 156.743 9.87458V0H155.159V10.033C155.159 10.6402 155.397 11.2233 155.821 11.6575C156.245 12.0917 156.823 12.3426 157.43 12.3564H168.889V14.099H170.473V0H168.889Z" fill="#343A1D"/>
<path d="M134.837 5.22449H136.796V28.6854L135.801 32L134.837 28.6854V5.22449Z" fill="#343A1D"/>
<path d="M138.755 5.22449H132.878V5.87755H138.755V5.22449Z" fill="#343A1D"/>
<path d="M136.143 1.30615H134.837V5.87758H136.143V1.30615Z" fill="#343A1D"/>
<path d="M132.224 5.87753C132.585 5.87753 132.878 5.58515 132.878 5.22447C132.878 4.8638 132.585 4.57141 132.224 4.57141C131.864 4.57141 131.571 4.8638 131.571 5.22447C131.571 5.58515 131.864 5.87753 132.224 5.87753Z" fill="#343A1D"/>
<path d="M138.755 5.87753C139.116 5.87753 139.408 5.58515 139.408 5.22447C139.408 4.8638 139.116 4.57141 138.755 4.57141C138.394 4.57141 138.102 4.8638 138.102 5.22447C138.102 5.58515 138.394 5.87753 138.755 5.87753Z" fill="#343A1D"/>
<path d="M135.816 1.95918C136.357 1.95918 136.796 1.52061 136.796 0.979591C136.796 0.438578 136.357 0 135.816 0C135.275 0 134.837 0.438578 134.837 0.979591C134.837 1.52061 135.275 1.95918 135.816 1.95918Z" fill="#343A1D"/>
<path fill-rule="evenodd" clip-rule="evenodd" d="M137.302 23.7037C140.273 21.3268 142.082 18.0783 142.368 14.6093C142.368 13.1096 142.567 11.5858 142.567 10.4974C140.748 10.2022 138.98 9.71471 137.302 9.04615V23.7037ZM137.302 26.1225C140.837 23.684 143.253 20.258 144.123 16.4475C144.406 14.0288 144.633 11.3681 144.633 9.55409V9.23965H144.265C142.529 8.97398 140.831 8.55239 139.199 7.9819L137.698 7.4014L137.302 7.2079V8.07865L138.859 8.68334C140.429 9.23851 142.06 9.65981 143.727 9.94109C143.727 11.7068 143.501 14.1739 143.246 16.4475C142.508 19.8381 140.405 22.9013 137.302 25.1066V26.1225ZM134.076 9.04615C132.431 9.71651 130.689 10.1964 128.896 10.4732C128.896 11.5616 128.896 13.0855 129.123 14.5851C129.402 18.0144 131.168 21.2313 134.076 23.607V9.04615ZM134.076 7.18372L133.793 7.32884L132.293 7.90934C130.706 8.47768 129.056 8.90719 127.368 9.19127H127V9.50571C127 11.3198 127.226 13.9804 127.481 16.3991C128.325 20.2009 130.71 23.6267 134.217 26.0741V24.9857C131.164 22.7902 129.102 19.7538 128.387 16.3991C128.132 14.1255 127.906 11.5616 127.877 9.89271C129.555 9.61486 131.195 9.19349 132.774 8.63496C133.267 8.46408 133.749 8.2703 134.217 8.05447L134.076 7.18372Z" fill="#343A1D"/>
<rect x="111" width="1" height="32" fill="#343A1D"/>
</svg>
