<svg width="35" height="35" viewBox="0 0 35 35" fill="none" xmlns="http://www.w3.org/2000/svg">
<path d="M34.2047 17.5008C34.2057 23.0345 29.731 27.5214 24.2085 27.5225C18.6869 27.5246 14.2096 23.0387 14.208 17.5056V17.5003C14.2059 11.9655 18.6822 7.47913 24.2037 7.47754C29.7252 7.47595 34.2031 11.9618 34.2047 17.4955C34.2047 17.4955 34.2047 17.4987 34.2047 17.5008Z" fill="#FFB600"/>
<path d="M24.2037 7.47852C29.7252 7.47693 34.2031 11.9622 34.2047 17.4965C34.2047 17.4965 34.2047 17.4997 34.2047 17.5018C34.2057 23.0355 29.731 27.5224 24.2085 27.5234C18.6869 27.5256 14.2096 23.0397 14.208 17.5065" fill="#F7981D"/>
<path d="M24.2036 7.47852C29.7251 7.47693 34.203 11.9622 34.2046 17.4965C34.2046 17.4965 34.2046 17.4997 34.2046 17.5018C34.2057 23.0355 29.731 27.5224 24.2084 27.5234" fill="#FF8500"/>
<path d="M10.7301 7.48047C5.24041 7.516 0.79541 11.9912 0.79541 17.5011C0.79541 23.0327 5.27488 27.5217 10.7943 27.5217C13.3832 27.5217 15.7452 26.5316 17.5217 24.9105V24.9094H17.5228C17.8871 24.5774 18.2259 24.219 18.5383 23.8366H16.4903C16.2166 23.5068 15.9679 23.1615 15.7447 22.8052H19.2775C19.4928 22.461 19.6864 22.102 19.8609 21.7324H15.1613C15.0006 21.3882 14.8622 21.0366 14.744 20.6802H20.2782C20.6118 19.6806 20.7926 18.6121 20.7926 17.5021C20.7926 16.765 20.7125 16.0475 20.5625 15.356H14.4497C14.526 15.0002 14.6209 14.648 14.735 14.3039H20.2713C20.1478 13.9358 20.0035 13.5784 19.8407 13.2305H15.1603C15.3289 12.8699 15.5209 12.5178 15.734 12.1784H19.2643C19.0293 11.8035 18.769 11.445 18.489 11.1062H16.52C16.8243 10.7471 17.16 10.4088 17.5228 10.0943C15.7462 8.47214 13.3848 7.48259 10.7943 7.48259C10.772 7.48047 10.7508 7.48047 10.7301 7.48047Z" fill="#FF5050"/>
<path d="M0.79541 17.5009C0.79541 23.0325 5.27488 27.5215 10.7943 27.5215C13.3832 27.5215 15.7452 26.5314 17.5217 24.9103V24.9092H17.5228C17.8871 24.5773 18.2259 24.2188 18.5383 23.8364H16.4903C16.2166 23.5066 15.9679 23.1614 15.7447 22.805H19.2775C19.4928 22.4608 19.6864 22.1018 19.8609 21.7322H15.1613C15.0006 21.388 14.8622 21.0364 14.744 20.6801H20.2782C20.6118 19.6805 20.7926 18.6119 20.7926 17.502C20.7926 16.7648 20.7125 16.0473 20.5625 15.3558H14.4497C14.526 15 14.6209 14.6479 14.735 14.3037H20.2713C20.1478 13.9357 20.0035 13.5783 19.8407 13.2304H15.1603C15.3289 12.8698 15.5209 12.5176 15.734 12.1783H19.2643C19.0293 11.8033 18.769 11.4448 18.489 11.106H16.52C16.8243 10.747 17.16 10.4086 17.5228 10.0942C15.7462 8.47197 13.3848 7.48242 10.7943 7.48242C10.772 7.48242 10.7508 7.48242 10.7301 7.48242" fill="#E52836"/>
<path d="M10.7941 27.5205C13.3831 27.5205 15.7451 26.5305 17.5216 24.9093V24.9083H17.5226C17.8869 24.5763 18.2258 24.2178 18.5382 23.8355H16.4901C16.2165 23.5056 15.9678 23.1604 15.7445 22.804H19.2774C19.4927 22.4599 19.6863 22.1008 19.8607 21.7312H15.1612C15.0005 21.3871 14.8621 21.0355 14.7438 20.6791H20.2781C20.6116 19.6795 20.7925 18.6109 20.7925 17.501C20.7925 16.7639 20.7124 16.0464 20.5623 15.3549H14.4495C14.5259 14.999 14.6208 14.6469 14.7348 14.3027H20.2712C20.1476 13.9347 20.0034 13.5773 19.8406 13.2294H15.1601C15.3288 12.8688 15.5207 12.5167 15.7339 12.1773H19.2641C19.0292 11.8024 18.7688 11.4439 18.4888 11.105H16.5198C16.8242 10.746 17.1599 10.4077 17.5226 10.0932C15.7461 8.47099 13.3847 7.48145 10.7941 7.48145C10.7719 7.48145 10.7507 7.48145 10.73 7.48145" fill="#CB2026"/>
<path d="M14.3898 20.0518L14.5229 19.145C14.4497 19.145 14.3426 19.1763 14.2476 19.1763C13.878 19.1763 13.8366 18.9785 13.8605 18.8332L14.1596 16.983H14.7228L14.8591 15.9791H14.3282L14.437 15.3555H13.3716C13.3482 15.3788 12.7432 18.8634 12.7432 19.2877C12.7432 19.9161 13.0942 20.1961 13.5911 20.1918C13.9793 20.1876 14.2832 20.0799 14.3898 20.0518Z" fill="white"/>
<path d="M14.7271 18.3225C14.7271 19.8306 15.7198 20.1891 16.5661 20.1891C17.3473 20.1891 17.6899 20.0136 17.6899 20.0136L17.8781 18.9848C17.8781 18.9848 17.2836 19.2478 16.747 19.2478C15.6042 19.2478 15.8046 18.3935 15.8046 18.3935H17.9683C17.9683 18.3935 18.1083 17.702 18.1083 17.4199C18.1083 16.7172 17.7583 15.8613 16.59 15.8613C15.5188 15.8603 14.7271 17.0163 14.7271 18.3225ZM16.5942 16.8153C17.1946 16.8153 17.0837 17.492 17.0837 17.5466H15.9017C15.9011 17.4772 16.0125 16.8153 16.5942 16.8153Z" fill="white"/>
<path d="M23.3345 20.0523L23.5249 18.8877C23.5249 18.8877 23.0031 19.1518 22.6446 19.1518C21.8894 19.1518 21.5866 18.5727 21.5866 17.9528C21.5866 16.6928 22.2362 15.9991 22.9596 15.9991C23.5021 15.9991 23.9375 16.3051 23.9375 16.3051L24.1114 15.1751C24.1114 15.1751 23.4655 14.9131 22.9124 14.9131C21.6831 14.9131 20.4873 15.9811 20.4873 17.9883C20.4873 19.3183 21.1337 20.1976 22.4033 20.1976C22.7628 20.1976 23.3345 20.0523 23.3345 20.0523Z" fill="white"/>
<path d="M8.53418 15.877C7.80396 15.877 7.24502 16.1108 7.24502 16.1108L7.09017 17.0304C7.09017 17.0304 7.55259 16.8426 8.25047 16.8426C8.64608 16.8426 8.93615 16.8872 8.93615 17.2101C8.93615 17.4063 8.90115 17.479 8.90115 17.479C8.90115 17.479 8.5888 17.452 8.4435 17.452C7.52396 17.452 6.55615 17.8454 6.55615 19.0333C6.55615 19.9688 7.18986 20.183 7.58388 20.183C8.33479 20.183 8.65774 19.6951 8.67577 19.693L8.64183 20.1013H9.57888L9.99676 17.1629C9.99623 15.9178 8.91123 15.877 8.53418 15.877ZM8.76274 18.2686C8.78236 18.4489 8.64926 19.29 8.00865 19.29C7.67827 19.29 7.59183 19.036 7.59183 18.887C7.59183 18.5948 7.75039 18.2442 8.531 18.2442C8.71289 18.2442 8.73199 18.2644 8.76274 18.2686Z" fill="white"/>
<path d="M10.9926 20.1623C11.2323 20.1623 12.6026 20.2243 12.6026 18.8063C12.6026 17.4805 11.3341 17.7425 11.3341 17.2095C11.3341 16.946 11.5404 16.8611 11.9191 16.8611C12.0686 16.8611 12.6466 16.9094 12.6466 16.9094L12.7813 15.967C12.7813 15.967 12.4075 15.8838 11.7992 15.8838C11.0107 15.8838 10.2115 16.1983 10.2115 17.2764C10.2115 18.4992 11.5447 18.3752 11.5447 18.8895C11.5447 19.2332 11.1724 19.2618 10.885 19.2618C10.3886 19.2618 9.94262 19.0905 9.9405 19.0985L9.79785 20.0308C9.82278 20.0392 10.0996 20.1623 10.9926 20.1623Z" fill="white"/>
<path d="M32.1525 15.0314L31.9229 16.4595C31.9229 16.4595 31.522 15.9054 30.8952 15.9054C29.9194 15.9054 29.1064 17.0837 29.1064 18.4376C29.1064 19.3126 29.5397 20.1679 30.4264 20.1679C31.0643 20.1679 31.417 19.7225 31.417 19.7225L31.3708 20.1027H32.406L33.2195 15.0293L32.1525 15.0314ZM31.6583 17.8176C31.6583 18.3803 31.3799 19.1323 30.8029 19.1323C30.4189 19.1323 30.2402 18.8104 30.2402 18.3039C30.2402 17.4772 30.6104 16.9304 31.0776 16.9304C31.4615 16.931 31.6583 17.1951 31.6583 17.8176Z" fill="white"/>
<path d="M2.7697 20.107L3.41827 16.2767L3.51372 20.107H4.24713L5.61637 16.2767L5.00917 20.107H6.09842L6.93842 15.0283H5.25311L4.20311 18.1444L4.14849 15.0283H2.59577L1.74463 20.107H2.7697Z" fill="white"/>
<path d="M19.1721 20.1156C19.4818 18.3502 19.539 16.9158 20.2788 17.1772C20.4082 16.4942 20.5328 16.2301 20.6744 15.9405C20.6744 15.9405 20.6081 15.9268 20.4686 15.9268C19.993 15.9268 19.6398 16.5796 19.6398 16.5796L19.7342 15.9803H18.7425L18.0791 20.1156H19.1721Z" fill="white"/>
<path d="M25.791 15.877C25.0608 15.877 24.5013 16.1108 24.5013 16.1108L24.3475 17.0304C24.3475 17.0304 24.8084 16.8426 25.5073 16.8426C25.904 16.8426 26.194 16.8872 26.194 17.2101C26.194 17.4063 26.158 17.479 26.158 17.479C26.158 17.479 25.8456 17.452 25.7003 17.452C24.7797 17.452 23.813 17.8454 23.813 19.0333C23.813 19.9688 24.4472 20.183 24.8407 20.183C25.5922 20.183 25.9151 19.6951 25.9326 19.693L25.8987 20.1013H26.8368L27.2547 17.1629C27.2536 15.9178 26.1691 15.877 25.791 15.877ZM26.019 18.2686C26.0392 18.4489 25.9077 19.29 25.265 19.29C24.9346 19.29 24.8492 19.036 24.8492 18.887C24.8492 18.5948 25.0078 18.2442 25.7873 18.2442C25.9692 18.2442 25.9883 18.2644 26.019 18.2686Z" fill="white"/>
<path d="M28.109 20.1156C28.4198 18.3502 28.4765 16.9158 29.2168 17.1772C29.3462 16.4942 29.4708 16.2301 29.6124 15.9405C29.6124 15.9405 29.5456 15.9268 29.4067 15.9268C28.9294 15.9268 28.5773 16.5796 28.5773 16.5796L28.6727 15.9803H27.6805L27.0166 20.1156H28.109Z" fill="white"/>
<path d="M12.7432 19.2882C12.7432 19.9166 13.0942 20.1966 13.5911 20.1924C13.9793 20.1881 14.2832 20.0805 14.3898 20.0518L14.5229 19.145C14.4497 19.145 14.3426 19.1763 14.2476 19.1763C13.878 19.1763 13.8366 18.9785 13.8605 18.8332L14.1596 16.983H14.7228L14.8591 15.9791H14.3282L14.437 15.3555" fill="#DCE5E5"/>
<path d="M15.249 18.3225C15.249 19.8306 15.7199 20.1891 16.5658 20.1891C17.3469 20.1891 17.6895 20.0136 17.6895 20.0136L17.8777 18.9848C17.8777 18.9848 17.2833 19.2478 16.7466 19.2478C15.6038 19.2478 15.8043 18.3935 15.8043 18.3935H17.9679C17.9679 18.3935 18.1079 17.702 18.1079 17.4199C18.1079 16.7172 17.7579 15.8613 16.5896 15.8613C15.5189 15.8603 15.249 17.0163 15.249 18.3225ZM16.5944 16.8153C17.1947 16.8153 17.2652 17.492 17.2652 17.5466H15.9018C15.9013 17.4772 16.0127 16.8153 16.5944 16.8153Z" fill="#DCE5E5"/>
<path d="M23.3342 20.0523L23.5245 18.8877C23.5245 18.8877 23.0027 19.1518 22.6442 19.1518C21.8891 19.1518 21.5863 18.5727 21.5863 17.9528C21.5863 16.6928 22.2359 15.9991 22.9592 15.9991C23.5017 15.9991 23.9371 16.3051 23.9371 16.3051L24.1111 15.1751C24.1111 15.1751 23.4652 14.9131 22.912 14.9131C21.6828 14.9131 21.0088 15.9811 21.0088 17.9883C21.0088 19.3183 21.1329 20.1976 22.403 20.1976C22.7625 20.1976 23.3342 20.0523 23.3342 20.0523Z" fill="#DCE5E5"/>
<path d="M7.09017 17.0309C7.09017 17.0309 7.55259 16.8432 8.25047 16.8432C8.64608 16.8432 8.93615 16.8877 8.93615 17.2107C8.93615 17.4069 8.90115 17.4795 8.90115 17.4795C8.90115 17.4795 8.5888 17.4525 8.4435 17.4525C7.52396 17.4525 6.55615 17.846 6.55615 19.0338C6.55615 19.9693 7.18986 20.1835 7.58388 20.1835C8.33479 20.1835 8.65774 19.6957 8.67577 19.6935L8.64183 20.1019H9.57888L9.99676 17.1635C9.99676 15.9173 8.91176 15.877 8.53471 15.877M9.28509 18.2686C9.30471 18.4489 8.64979 19.29 8.00918 19.29C7.6788 19.29 7.59236 19.036 7.59236 18.887C7.59236 18.5948 7.75092 18.2442 8.53153 18.2442C8.71289 18.2442 9.2538 18.2644 9.28509 18.2686Z" fill="#DCE5E5"/>
<path d="M9.79785 20.0308C9.82331 20.0398 10.0996 20.1623 10.9926 20.1623C11.2323 20.1623 12.6026 20.2243 12.6026 18.8063C12.6026 17.4805 11.3341 17.7425 11.3341 17.2095C11.3341 16.946 11.5404 16.8611 11.9191 16.8611C12.0686 16.8611 12.6466 16.9094 12.6466 16.9094L12.7813 15.967C12.7813 15.967 12.4075 15.8838 11.7992 15.8838C11.0107 15.8838 10.7333 16.1983 10.7333 17.2764C10.7333 18.4992 11.5441 18.3752 11.5441 18.8895C11.5441 19.2332 11.1719 19.2618 10.8844 19.2618" fill="#DCE5E5"/>
<path d="M31.9231 16.4595C31.9231 16.4595 31.5221 15.9054 30.8953 15.9054C29.9196 15.9054 29.6284 17.0837 29.6284 18.4376C29.6284 19.3126 29.5399 20.1679 30.4265 20.1679C31.0645 20.1679 31.4171 19.7225 31.4171 19.7225L31.371 20.1027H32.4062L33.2196 15.0293M31.8812 17.8176C31.8812 18.3803 31.38 19.1323 30.8031 19.1323C30.4191 19.1323 30.2404 18.8104 30.2404 18.3039C30.2404 17.4772 30.6106 16.9304 31.0778 16.9304C31.4617 16.931 31.8812 17.1951 31.8812 17.8176Z" fill="#DCE5E5"/>
<path d="M2.76975 20.107L3.41831 16.2767L3.51376 20.107H4.24717L5.61641 16.2767L5.00922 20.107H6.09846L6.93846 15.0283H5.69861L4.20316 18.1444L4.14853 15.0283H3.55672L1.74414 20.107H2.76975Z" fill="#DCE5E5"/>
<path d="M18.0791 20.1156H19.1726C19.4823 18.3502 19.5396 16.9158 20.2793 17.1772C20.4087 16.4942 20.5333 16.2301 20.6749 15.9405C20.6749 15.9405 20.6086 15.9268 20.4692 15.9268C19.9935 15.9268 19.6403 16.5796 19.6403 16.5796L19.7347 15.9803" fill="#DCE5E5"/>
<path d="M24.3475 17.0309C24.3475 17.0309 24.8084 16.8432 25.5073 16.8432C25.904 16.8432 26.194 16.8877 26.194 17.2107C26.194 17.4069 26.158 17.4795 26.158 17.4795C26.158 17.4795 25.8456 17.4525 25.7003 17.4525C24.7797 17.4525 23.813 17.846 23.813 19.0338C23.813 19.9693 24.4472 20.1835 24.8407 20.1835C25.5922 20.1835 25.9151 19.6957 25.9326 19.6935L25.8987 20.1019H26.8368L27.2547 17.1635C27.2547 15.9173 26.1702 15.877 25.7921 15.877M26.5414 18.2686C26.5615 18.4489 25.9082 19.29 25.2655 19.29C24.9351 19.29 24.8497 19.036 24.8497 18.887C24.8497 18.5948 25.0083 18.2442 25.7878 18.2442C25.9692 18.2442 26.5101 18.2644 26.5414 18.2686Z" fill="#DCE5E5"/>
<path d="M27.0161 20.1156H28.1091C28.4198 18.3502 28.4766 16.9158 29.2169 17.1772C29.3463 16.4942 29.4709 16.2301 29.6125 15.9405C29.6125 15.9405 29.5457 15.9268 29.4067 15.9268C28.9294 15.9268 28.5773 16.5796 28.5773 16.5796L28.6728 15.9803" fill="#DCE5E5"/>
</svg>
