<svg width="52" height="14" viewBox="0 0 52 14" fill="none" xmlns="http://www.w3.org/2000/svg">
<g clip-path="url(#clip0_550_983)">
<path d="M0 7V14H2.31397H4.62794V9.84279V5.68559H4.80791C4.98789 5.68559 5.00074 5.71004 5.18714 6.30917C5.29642 6.65764 5.81063 8.24716 6.33127 9.84279C6.85192 11.4384 7.36613 13.0279 7.4754 13.3703L7.66823 14H9.31372H10.9656L12.1805 10.2524C12.8489 8.19825 13.4467 6.33974 13.5174 6.12576C13.6331 5.77729 13.6524 5.74673 13.826 5.74673H14.0124V9.87336V14H16.3263H18.6403V7V0H16.0885C13.5689 0 13.5239 0.00611305 13.0996 0.146725C12.399 0.385153 11.8977 0.79476 11.602 1.37555C11.5184 1.54061 11.0106 3.17293 10.4643 4.99476C9.50012 8.25939 9.48084 8.31441 9.32015 8.31441C9.17231 8.31441 9.1466 8.27162 9.01805 7.83755C8.94092 7.58079 8.5424 6.23581 8.13103 4.86026C7.14116 1.51004 7.1026 1.40611 6.85834 1.06376C6.59481 0.696943 6.12559 0.348472 5.65637 0.165066C5.3157 0.0366812 5.22571 0.0305681 2.65464 0.0122271L0 -0.00611401V7Z" fill="#40C16B"/>
<path d="M20.6328 7V14H22.9468C25.1386 14 25.2736 13.9939 25.6207 13.8716C26.0385 13.7249 26.5656 13.3336 26.8162 12.9852C26.9705 12.7834 27.8897 10.8699 29.8437 6.67598C30.2808 5.74061 30.3193 5.68559 30.48 5.68559H30.66V9.84279V14H32.974H35.2879V7V-0.00611401L32.8968 0.0122271L30.4993 0.0305681L30.1265 0.20786C29.9272 0.305676 29.6123 0.531878 29.4323 0.715283C29.0659 1.08821 29.0659 1.0821 26.9898 5.42271C25.6593 8.21048 25.6078 8.31441 25.4407 8.31441H25.2607V4.15721V0H22.9468H20.6328V7Z" fill="#40C16B"/>
<path d="M37.3447 10.179V14H39.6587H41.9727V11.7747V9.54323L45.013 9.52489L48.0468 9.50655L48.4968 9.3476C50.033 8.81572 51.1578 7.81921 51.672 6.52314L51.7427 6.35808H44.5437H37.3447V10.179Z" fill="#40C16B"/>
<path d="M47.4365 2.86759V5.74707H49.6798H51.923L51.9616 5.60646C52.0452 5.29467 52.0002 4.12087 51.8781 3.6379C51.5374 2.29292 50.6632 1.22305 49.352 0.532223C49.0049 0.348817 48.1436 0.0798216 47.7322 0.0309129L47.4365 -0.0118818V2.86759Z" fill="#1596C1"/>
<path d="M43.5796 2.86734V5.7407L45.5079 5.74682L47.4362 5.75293V2.87957V0.0123181L45.5079 9.10759e-05L43.5796 -0.00602245V2.86734Z" fill="#1596EC"/>
<path d="M36.7021 0.104276C36.7021 0.519996 37.2742 1.8772 37.7563 2.58637C38.8169 4.15755 40.6937 5.33135 42.667 5.65537C42.9691 5.70428 43.297 5.74707 43.3934 5.74707H43.5798V2.87371V0.00034523H40.141C36.9593 0.00034523 36.7021 0.00645876 36.7021 0.104276Z" fill="#15C1EC"/>
</g>
<defs>
<clipPath id="clip0_550_983">
<rect width="52" height="14" fill="white"/>
</clipPath>
</defs>
</svg>
