<svg width="46" height="14" viewBox="0 0 46 14" fill="none" xmlns="http://www.w3.org/2000/svg">
<path fill-rule="evenodd" clip-rule="evenodd" d="M17.1745 0.2461L11.3591 13.7705L7.44938 13.7752L4.1384 2.44714L3.87012 1.59363L3.89225 1.60574C3.90962 1.61509 3.92695 1.6248 3.94425 1.63422C4.53993 1.9498 7.18445 3.45781 8.81957 5.90079C9.0685 7.14324 9.30684 8.27184 9.64336 9.4892L13.261 0.246094L17.1745 0.2461Z" fill="#006CB5"/>
<path fill-rule="evenodd" clip-rule="evenodd" d="M32.9055 9.35454C32.8782 12.1698 30.3598 13.9876 26.4773 13.9876C24.8224 13.9697 23.2265 13.6443 22.3599 13.2643L22.8788 10.231L23.3561 10.4494C24.5717 10.9552 25.3556 11.1581 26.8347 11.1581C27.8975 11.1581 29.0338 10.7415 29.0418 9.83179C29.0465 9.23812 28.5646 8.81674 27.1268 8.15304C25.7271 7.50349 23.8713 6.41845 23.8949 4.47117C23.9127 1.83661 26.487 0 30.1366 0C31.566 0 32.7106 0.292141 33.4443 0.569809L32.9435 3.50591L32.6086 3.34808C31.9318 3.07511 31.0555 2.81029 29.8445 2.8291C28.402 2.8291 27.7299 3.43255 27.7299 3.99763C27.7252 4.62798 28.5138 5.0507 29.8031 5.67635C31.9365 6.64159 32.9243 7.8148 32.9055 9.35454Z" fill="#006CB5"/>
<path fill-rule="evenodd" clip-rule="evenodd" d="M42.9193 0.246102H40.0673C39.1818 0.246102 38.5181 0.487094 38.1335 1.37287L32.647 13.7884H36.5234C36.5234 13.7884 37.1585 12.119 37.3035 11.7522C37.7249 11.7522 41.4957 11.7616 42.0335 11.7616C42.1405 12.2355 42.4787 13.7884 42.4787 13.7884H45.9065L42.9193 0.246102ZM38.3647 8.98339C39.0284 7.29754 39.694 5.59966 40.3262 3.90072C40.6897 5.59595 41.0614 7.28932 41.4304 8.98339H38.3647Z" fill="#006CB5"/>
<path fill-rule="evenodd" clip-rule="evenodd" d="M18.6673 0.231445H22.3597L20.0493 13.7832H16.3579L18.6673 0.231445Z" fill="#006CB5"/>
<path fill-rule="evenodd" clip-rule="evenodd" d="M4.80981e-06 0.112309L6.24767 0.116687C7.01802 0.143938 7.63898 0.38959 7.85741 1.21482L8.81936 5.90062C7.18424 3.45762 4.53972 1.94963 3.94404 1.63405C3.92674 1.62462 3.90966 1.61509 3.89229 1.60573C3.79271 1.55113 3.69179 1.49719 3.59016 1.44449C2.4989 0.878207 1.29201 0.424115 4.80981e-06 0.112309Z" fill="#FAA841"/>
</svg>
